<svg width="3948" height="1085" xmlns="http://www.w3.org/2000/svg" xmlns:xlink="http://www.w3.org/1999/xlink" xml:space="preserve" overflow="hidden"><defs><clipPath id="clip0"><rect x="226" y="746" width="3948" height="1085"/></clipPath><linearGradient x1="432.167" y1="644.561" x2="3967.83" y2="1931.44" gradientUnits="userSpaceOnUse" spreadMethod="reflect" id="fill1"><stop offset="0" stop-color="#F2F2F2"/><stop offset="0.0416667" stop-color="#F1F1F1"/><stop offset="0.0833333" stop-color="#F1F1F1"/><stop offset="0.125" stop-color="#F1F1F1"/><stop offset="0.166667" stop-color="#F1F1F1"/><stop offset="0.208333" stop-color="#F0F0F0"/><stop offset="0.25" stop-color="#F0F0F0"/><stop offset="0.291667" stop-color="#EFEFEF"/><stop offset="0.333333" stop-color="#EEEEEE"/><stop offset="0.375" stop-color="#EEEEEE"/><stop offset="0.416667" stop-color="#EDEDED"/><stop offset="0.458333" stop-color="#ECECEC"/><stop offset="0.5" stop-color="#EBEBEB"/><stop offset="0.541667" stop-color="#EAEAEA"/><stop offset="0.583333" stop-color="#E8E8E8"/><stop offset="0.625" stop-color="#E7E7E7"/><stop offset="0.666667" stop-color="#E6E6E6"/><stop offset="0.708333" stop-color="#E4E4E4"/><stop offset="0.75" stop-color="#E3E3E3"/><stop offset="0.791667" stop-color="#E1E1E1"/><stop offset="0.833333" stop-color="#E0E0E0"/><stop offset="0.875" stop-color="#DEDEDE"/><stop offset="0.916667" stop-color="#DCDCDC"/><stop offset="0.958333" stop-color="#DADADA"/><stop offset="1" stop-color="#D9D9D9"/></linearGradient></defs><g clip-path="url(#clip0)" transform="translate(-226 -746)"><path d="M226 1211 4097 1211 4174 1288 4097 1365 226 1365Z" fill="url(#fill1)" fill-rule="evenodd"/><path d="M312.338 882.317C327.917 897.896 327.917 923.155 312.338 938.734 301.525 949.547 292.122 961.771 284.129 975.405 276.137 961.771 266.734 949.547 255.921 938.734 240.342 923.155 240.342 897.896 255.921 882.317 271.5 866.738 296.759 866.738 312.338 882.317Z" stroke="#C00000" stroke-width="4.58333" stroke-miterlimit="8" fill="#C00000" fill-rule="evenodd"/><path d="M253.5 911C253.5 893.603 267.379 879.5 284.5 879.5 301.621 879.5 315.5 893.603 315.5 911 315.5 928.397 301.621 942.5 284.5 942.5 267.379 942.5 253.5 928.397 253.5 911ZM269 911C269 919.837 275.94 927 284.5 927 293.06 927 300 919.837 300 911 300 902.164 293.06 895 284.5 895 275.94 895 269 902.164 269 911Z" stroke="#C00000" stroke-width="4.58333" stroke-miterlimit="8" fill="#C00000" fill-rule="evenodd"/><text fill="#595959" font-family="Arial,Arial_MSFontService,sans-serif" font-weight="700" font-size="55" transform="matrix(1 0 0 1 359.35 1082)">Stuxnet</text><text fill="#595959" font-family="Arial,Arial_MSFontService,sans-serif" font-weight="700" font-size="73" transform="matrix(1 0 0 1 359.35 945)">2010</text><path d="M284 967 284 1288" stroke="#C00000" stroke-width="13.75" stroke-miterlimit="8" fill="none" fill-rule="evenodd"/><path d="M274 1288C274 1282.48 278.477 1278 284 1278 289.523 1278 294 1282.48 294 1288 294 1293.52 289.523 1298 284 1298 278.477 1298 274 1293.52 274 1288Z" stroke="#C00000" stroke-width="2.29167" stroke-miterlimit="8" fill="#C00000" fill-rule="evenodd"/><path d="M912.785 1693.86C897.206 1678.28 897.206 1653.02 912.785 1637.44 923.599 1626.63 933.002 1614.41 940.994 1600.77 948.987 1614.41 958.389 1626.63 969.203 1637.44 984.782 1653.02 984.782 1678.28 969.203 1693.86 953.624 1709.44 928.365 1709.44 912.785 1693.86Z" stroke="#C00000" stroke-width="4.58333" stroke-miterlimit="8" fill="#C00000" fill-rule="evenodd"/><path d="M910.5 1666.5C910.5 1649.38 924.379 1635.5 941.5 1635.5 958.621 1635.5 972.5 1649.38 972.5 1666.5 972.5 1683.62 958.621 1697.5 941.5 1697.5 924.379 1697.5 910.5 1683.62 910.5 1666.5ZM926 1666.5C926 1675.06 932.94 1682 941.5 1682 950.06 1682 957 1675.06 957 1666.5 957 1657.94 950.06 1651 941.5 1651 932.94 1651 926 1657.94 926 1666.5Z" stroke="#C00000" stroke-width="4.58333" stroke-miterlimit="8" fill="#C00000" fill-rule="evenodd"/><text fill="#595959" font-family="Arial,Arial_MSFontService,sans-serif" font-weight="700" font-size="55" transform="matrix(1 0 0 1 1016.07 1488)">Crashoverride</text><text fill="#595959" font-family="Arial,Arial_MSFontService,sans-serif" font-weight="700" font-size="55" transform="matrix(1 0 0 1 1016.07 1567)">Industroyer</text><text fill="#595959" font-family="Arial,Arial_MSFontService,sans-serif" font-weight="700" font-size="73" transform="matrix(1 0 0 1 1016.07 1685)">2015/2016</text><path d="M941 1288 941 1609" stroke="#C00000" stroke-width="13.75" stroke-miterlimit="8" fill="none" fill-rule="evenodd"/><path d="M931 1288C931 1282.48 935.477 1278 941 1278 946.523 1278 951 1282.48 951 1288 951 1293.52 946.523 1298 941 1298 935.477 1298 931 1293.52 931 1288Z" stroke="#C00000" stroke-width="2.29167" stroke-miterlimit="8" fill="#C00000" fill-rule="evenodd"/><path d="M1626.07 882.317C1641.65 897.896 1641.65 923.155 1626.07 938.734 1615.25 949.547 1605.85 961.771 1597.86 975.405 1589.87 961.771 1580.46 949.547 1569.65 938.734 1554.07 923.155 1554.07 897.896 1569.65 882.317 1585.23 866.738 1610.49 866.738 1626.07 882.317Z" stroke="#C00000" stroke-width="4.58333" stroke-miterlimit="8" fill="#C00000" fill-rule="evenodd"/><path d="M1567 910.5C1567 893.103 1580.88 879 1598 879 1615.12 879 1629 893.103 1629 910.5 1629 927.897 1615.12 942 1598 942 1580.88 942 1567 927.897 1567 910.5Z" fill="#C00000" fill-rule="evenodd" fill-opacity="0.901961"/><text fill="#595959" font-family="Arial,Arial_MSFontService,sans-serif" font-weight="700" font-size="55" transform="matrix(1 0 0 1 1681.46 1104)">Triton</text><text fill="#595959" font-family="Arial,Arial_MSFontService,sans-serif" font-weight="700" font-size="55" transform="matrix(1 0 0 1 1681.46 1183)">TRISIS</text><text fill="#595959" font-family="Arial,Arial_MSFontService,sans-serif" font-weight="700" font-size="73" transform="matrix(1 0 0 1 1681.46 947)">2017</text><path d="M1598 967 1598 1288" stroke="#C00000" stroke-width="13.75" stroke-miterlimit="8" fill="none" fill-rule="evenodd"/><path d="M1588 1288C1588 1282.48 1592.48 1278 1598 1278 1603.52 1278 1608 1282.48 1608 1288 1608 1293.52 1603.52 1298 1598 1298 1592.48 1298 1588 1293.52 1588 1288Z" stroke="#C00000" stroke-width="2.29167" stroke-miterlimit="8" fill="#C00000" fill-rule="evenodd"/><path d="M2552.33 1693.86C2536.75 1678.28 2536.75 1653.02 2552.33 1637.44 2563.14 1626.63 2572.54 1614.41 2580.54 1600.77 2588.53 1614.41 2597.93 1626.63 2608.74 1637.44 2624.32 1653.02 2624.32 1678.28 2608.74 1693.86 2593.16 1709.44 2567.91 1709.44 2552.33 1693.86Z" stroke="#C00000" stroke-width="4.58333" stroke-miterlimit="8" fill="#C00000" fill-rule="evenodd"/><path d="M2550.5 1666.5C2550.5 1649.38 2564.38 1635.5 2581.5 1635.5 2598.62 1635.5 2612.5 1649.38 2612.5 1666.5 2612.5 1683.62 2598.62 1697.5 2581.5 1697.5 2564.38 1697.5 2550.5 1683.62 2550.5 1666.5Z" stroke="#C00000" stroke-width="4.58333" stroke-miterlimit="8" fill="#C00000" fill-rule="evenodd"/><text fill="#595959" font-family="Arial,Arial_MSFontService,sans-serif" font-weight="700" font-size="55" transform="matrix(1 0 0 1 2659.69 1499)">Industroyer2</text><text fill="#595959" font-family="Arial,Arial_MSFontService,sans-serif" font-weight="700" font-size="55" transform="matrix(1 0 0 1 2659.69 1578)">INCONTROLLER</text><text fill="#595959" font-family="Arial,Arial_MSFontService,sans-serif" font-weight="700" font-size="73" transform="matrix(1 0 0 1 2659.69 1696)">2022</text><path d="M2582 1288 2582 1609" stroke="#C00000" stroke-width="13.75" stroke-miterlimit="8" fill="none" fill-rule="evenodd"/><path d="M2571 1288C2571 1282.48 2575.7 1278 2581.5 1278 2587.3 1278 2592 1282.48 2592 1288 2592 1293.52 2587.3 1298 2581.5 1298 2575.7 1298 2571 1293.52 2571 1288Z" stroke="#C00000" stroke-width="2.29167" stroke-miterlimit="8" fill="#C00000" fill-rule="evenodd"/><path d="M2939.8 882.317C2955.38 897.896 2955.38 923.155 2939.8 938.734 2928.98 949.547 2919.58 961.771 2911.59 975.405 2903.59 961.771 2894.19 949.547 2883.38 938.734 2867.8 923.155 2867.8 897.896 2883.38 882.317 2898.96 866.738 2924.22 866.738 2939.8 882.317Z" stroke="#C00000" stroke-width="4.58333" stroke-miterlimit="8" fill="#C00000" fill-rule="evenodd"/><path d="M2881 910.5C2881 893.103 2894.88 879 2912 879 2929.12 879 2943 893.103 2943 910.5 2943 927.897 2929.12 942 2912 942 2894.88 942 2881 927.897 2881 910.5ZM2896.5 910.5C2896.5 919.336 2903.44 926.5 2912 926.5 2920.56 926.5 2927.5 919.336 2927.5 910.5 2927.5 901.663 2920.56 894.5 2912 894.5 2903.44 894.5 2896.5 901.663 2896.5 910.5Z" fill="#FFFFFF" fill-rule="evenodd"/><text fill="#595959" font-family="Arial,Arial_MSFontService,sans-serif" font-weight="700" font-size="55" transform="matrix(1 0 0 1 2981.63 1046)">PIPEDREAM</text><text fill="#595959" font-family="Arial,Arial_MSFontService,sans-serif" font-weight="700" font-size="73" transform="matrix(1 0 0 1 2981.63 939)">2022</text><path d="M2912 967 2912 1288" stroke="#C00000" stroke-width="13.75" stroke-miterlimit="8" fill="none" fill-rule="evenodd"/><path d="M2901 1288C2901 1282.48 2905.7 1278 2911.5 1278 2917.3 1278 2922 1282.48 2922 1288 2922 1293.52 2917.3 1298 2911.5 1298 2905.7 1298 2901 1293.52 2901 1288Z" stroke="#C00000" stroke-width="2.29167" stroke-miterlimit="8" fill="#C00000" fill-rule="evenodd"/><path d="M2879.5 909C2879.5 887.737 2894.27 870.5 2912.5 870.5 2930.73 870.5 2945.5 887.737 2945.5 909 2945.5 930.263 2930.73 947.5 2912.5 947.5 2894.27 947.5 2879.5 930.263 2879.5 909Z" stroke="#C00000" stroke-width="4.58333" stroke-miterlimit="8" fill="#C00000" fill-rule="evenodd" fill-opacity="0.901961"/></g></svg>